<svg xmlns="http://www.w3.org/2000/svg" viewBox="0 0 500 500">
  <defs>
    <!-- Subtle gradient for depth -->
    <linearGradient id="leafGradient" x1="0%" y1="0%" x2="100%" y2="100%">
      <stop offset="0%" style="stop-color:#9ACD32;stop-opacity:0.7"/>
      <stop offset="100%" style="stop-color:#6B8E23;stop-opacity:0.9"/>
    </linearGradient>
  </defs>
  <!-- Stylized palm leaf shapes -->
  <rect width="500" height="500" fill="#F0E68C"/>

  <path d="M50 150 Q150 150, 250 100 Q350 150, 450 100 
           Q350 200, 250 250 Q150 150, 50 250 Z" 
        fill="url(#leafGradient)" 
        opacity="0.6"/>

  <path d="M100 200 Q200 150, 300 200 Q400 250, 500 200 
           Q400 300, 300 350 Q200 300, 100 350 Z" 
        fill="url(#leafGradient)" 
        opacity="0.4"/>

          <path d="M50 190 Q150 165, 250 190 Q350 215, 450 190 
           Q350 240, 250 265 Q150 240, 50 265 Z" 
        fill="url(#leafGradient)" 
        opacity="0.6"/>

  <path d="M100 250 Q200 225, 300 250 Q400 275, 500 250 
           Q400 300, 300 325 Q200 300, 100 325 Z" 
        fill="url(#leafGradient)" 
        opacity="0.4"/>
</svg>
